<?xml version="1.0" standalone="no"?>
<!DOCTYPE svg PUBLIC "-//W3C//DTD SVG 20010904//EN"
 "http://www.w3.org/TR/2001/REC-SVG-20010904/DTD/svg10.dtd">
<svg version="1.0" xmlns="http://www.w3.org/2000/svg"
 width="896.000000pt" height="1280.000000pt" viewBox="0 0 896.000000 1280.000000"
 preserveAspectRatio="xMidYMid meet">
<g transform="translate(0.000000,1280.000000) scale(0.100000,-0.100000)"
fill="#000000" stroke="none">
<path d="M4260 12789 c-58 -5 -184 -16 -280 -24 -944 -83 -1748 -402 -2448
-971 -144 -117 -502 -480 -625 -633 -383 -479 -635 -987 -776 -1561 -56 -231
-88 -442 -116 -785 -17 -209 -19 -332 -5 -493 5 -65 14 -180 20 -257 66 -847
323 -1611 748 -2225 571 -823 1325 -1314 2272 -1479 264 -46 390 -56 738 -56
243 0 332 -3 332 -11 0 -24 -384 -509 -615 -777 -566 -658 -1233 -1295 -1976
-1888 -113 -90 -278 -220 -366 -289 -89 -69 -158 -128 -155 -132 4 -3 711
-273 1572 -598 861 -325 1569 -596 1575 -601 5 -5 34 -9 65 -9 l55 0 176 183
c961 999 1639 1771 2175 2477 863 1137 1505 2241 1867 3210 244 653 395 1318
437 1920 6 85 15 194 20 241 30 264 -20 881 -105 1299 -205 1009 -743 1885
-1565 2546 -484 390 -1085 672 -1724 809 -401 86 -964 131 -1296 104z m410
-2924 c396 -54 687 -244 919 -600 171 -261 247 -574 221 -905 -25 -309 -102
-546 -252 -772 -78 -117 -273 -315 -382 -388 -431 -287 -998 -291 -1420 -8
-158 106 -370 362 -466 563 -218 456 -189 1051 71 1482 156 258 372 452 614
551 204 83 450 111 695 77z"/>
</g>
</svg>
